<svg className='w-full h-full' viewBox="0 0 114 81" fill="none" xmlns="http://www.w3.org/2000/svg">
                        <path d="M0.5 24C0.5 10.7452 11.2452 0 24.5 0H89.5C102.755 0 113.5 10.7452 113.5 24V74C113.5 77.3137 110.814 80 107.5 80H10.5C4.97715 80 0.5 75.5229 0.5 70V24Z" fill="url(#paint0_linear_255_86)" />
                        <path d="M0.5 24C0.5 10.7452 11.2452 0 24.5 0H89.5C102.755 0 113.5 10.7452 113.5 24V52H0.5V24Z" fill="#111133" fill-opacity="0.870588" />
                        <path d="M4.70555 1.36578C0.703494 3.82443 0.5 5.25864 0.5 27.3182C0.5 41.3189 0.703494 47.124 1.24615 47.124C1.65313 47.124 4.1629 45.963 6.80832 44.5971C12.4383 41.592 18.2718 36.4016 21.9347 31.0062C24.5123 27.2499 24.5802 27.045 24.9193 19.5325L25.2585 11.9516L27.4969 11.7467L29.6675 11.5419V17.8934C29.6675 23.4936 29.9388 24.7913 31.499 28.0695C34.3479 33.8746 42.352 41.5237 49.3386 45.0068C56.3253 48.5582 58.6315 48.4899 65.8895 44.8019C72.3335 41.4554 77.0138 37.2894 81.2194 31.0062L84.611 25.8157V18.7129V11.5419L86.8494 11.7467L89.02 11.9516L89.3592 19.1227C89.6305 25.4742 89.9018 26.7035 91.6654 29.7086C94.65 34.8308 101.84 41.592 107.402 44.5971C110.116 45.963 112.625 47.124 113.032 47.124C113.575 47.124 113.778 41.1823 113.778 26.7035C113.778 6.62456 113.778 6.28308 112.218 4.02932C111.404 2.79999 109.912 1.36578 109.03 0.887711C107.741 0.20475 95.9388 -0.000137329 57.1392 -0.000137329C7.96146 -0.000137329 6.87615 -0.000137329 4.70555 1.36578Z" fill="#111133" fill-opacity="0.870588" />
                        <path d="M26.9622 33.3797C26.9622 45.454 27.2482 52.1392 27.6773 52.1392C28.1065 52.1392 28.3925 45.454 28.3925 33.3797C28.3925 21.3054 28.1065 14.6202 27.6773 14.6202C27.2482 14.6202 26.9622 21.3054 26.9622 33.3797Z" fill="url(#paint1_linear_255_86)" />
                        <path d="M85.6942 33.1691C85.4702 46.0314 85.6942 51.8533 86.2168 52.1241C86.8141 52.4626 87.038 47.1146 87.038 33.6429C87.038 23.15 86.8141 14.6202 86.4408 14.6202C86.1421 14.6202 85.7688 22.9469 85.6942 33.1691Z" fill="url(#paint2_linear_255_86)" />
                        <path d="M29.8945 40.7429L29.823 52.1392H32.3262H34.8293V44.0289C34.8293 36.6179 34.6863 35.709 33.2559 33.9611C32.3262 32.9123 31.2534 31.4441 30.7527 30.7449C30.1091 29.6962 29.8945 31.7238 29.8945 40.7429Z" fill="url(#paint3_linear_255_86)" />
                        <path d="M82.1507 33.2422C80.7203 35.7847 80.6011 36.4719 80.6011 44.0307V52.1392H82.389H84.177V41.282C84.177 35.3724 84.0578 30.4936 83.9386 30.4936C83.8194 30.4936 83.0446 31.7305 82.1507 33.2422Z" fill="url(#paint4_linear_255_86)" />
                        <path d="M89.1833 41.0091V51.5246L90.9713 51.7977L92.7593 52.1392V44.0135C92.7593 36.4342 92.6401 35.7513 91.2097 33.2249C90.3157 31.7227 89.5409 30.4936 89.4217 30.4936C89.3025 30.4936 89.1833 35.2051 89.1833 41.0091Z" fill="url(#paint5_linear_255_86)" />
                        <path d="M23.2143 33.3075C22.07 35.1209 21.9556 36.1671 21.9556 43.7695V52.1392H23.3859H24.8163V41.6771C24.8163 35.8881 24.7591 31.2151 24.6447 31.2151C24.5302 31.2151 23.9009 32.1218 23.2143 33.3075Z" fill="url(#paint6_linear_255_86)" />
                        <path d="M16.8063 40.8294C14.2317 43.1599 14.0886 43.434 14.0886 47.6838V52.1392H16.9494H19.8101V45.2847C19.8101 41.5148 19.7386 38.4303 19.6671 38.4303C19.5241 38.4303 18.2367 39.527 16.8063 40.8294Z" fill="url(#paint7_linear_255_86)" />
                        <path d="M75.3806 40.9801C72.8774 43.391 72.7344 43.7354 72.7344 47.7995V52.1392H75.5951H78.4559V45.2509C78.4559 41.4623 78.3844 38.3625 78.3129 38.4314C78.1698 38.5003 76.8825 39.6024 75.3806 40.9801Z" fill="url(#paint8_linear_255_86)" />
                        <path d="M94.9053 45.0507V51.6042L97.766 51.8717L100.627 52.1392V47.6587C100.627 43.3789 100.555 43.1782 97.766 40.8377L94.9053 38.4303V45.0507Z" fill="url(#paint9_linear_255_86)" />
                        <path d="M36.2598 45.6795V52.1392H39.1205H41.9813V47.8554C41.9813 43.6396 41.9098 43.5036 39.1205 41.3277L36.2598 39.1518V45.6795Z" fill="url(#paint10_linear_255_86)" />
                        <path d="M43.4114 48.2066V52.1392H45.9145C48.2925 52.1392 48.4177 52.0677 48.4177 49.7796C48.4177 47.849 48.0422 47.2055 45.9145 45.847L43.4114 44.2025V48.2066Z" fill="url(#paint11_linear_255_86)" />
                        <path d="M102.772 48.1708V52.1392H105.275C107.591 52.1392 107.779 51.9949 107.779 50.0468C107.779 48.4594 107.215 47.5936 105.275 46.0784L102.772 44.2025V48.1708Z" fill="url(#paint12_linear_255_86)" />
                        <path d="M8.58191 46.7419C6.22178 48.1403 5.50659 48.9793 5.50659 50.4476C5.50659 52.1956 5.64963 52.2655 9.08254 52.0558L12.6585 51.7761V48.35C12.6585 46.4622 12.4439 44.924 12.1579 44.924C11.8003 44.9939 10.2268 45.763 8.58191 46.7419Z" fill="url(#paint13_linear_255_86)" />
                        <path d="M67.2827 46.5213C65.312 47.7003 64.8669 48.3939 64.8669 50.0585C64.8669 52.0698 64.9941 52.1392 67.7277 52.1392H70.5885V48.4633C70.5885 46.5213 70.3977 44.8567 70.1435 44.9261C69.8256 44.9954 68.5541 45.689 67.2827 46.5213Z" fill="url(#paint14_linear_255_86)" />
                        <path d="M50.5632 50.1741C50.5632 52.1392 50.6308 52.1392 56.6423 52.1392C62.3837 52.1392 62.7215 52.0573 62.7215 50.4198C62.7215 49.1098 62.4513 48.8641 61.5732 49.2735C58.8714 50.5835 55.4941 50.5835 53.0624 49.4373C50.5632 48.1272 50.5632 48.1272 50.5632 50.1741Z" fill="url(#paint15_linear_255_86)" />
                        <path d="M109.209 49.9126C109.209 51.3403 109.638 51.7912 111.354 52.0166C112.999 52.3172 113.5 52.0918 113.5 51.0398C113.5 50.2883 112.642 49.4618 111.354 48.9358C109.352 48.2595 109.209 48.3346 109.209 49.9126Z" fill="url(#paint16_linear_255_86)" />
                        <path d="M1.44035 49.6817C-0.197995 50.3519 0.443096 52.1392 2.29514 52.1392C3.57732 52.1392 4.07595 51.7668 4.07595 50.6498C4.07595 49.2349 3.22116 48.8626 1.44035 49.6817Z" fill="url(#paint17_linear_255_86)" />
                        <path d="M0.5 64.518C0.5 73.7174 1.17831 76.4431 3.9594 79.1007L5.51953 80.5317H57.5462H109.573L111.676 78.1467L113.778 75.6936V65.8809C113.778 59.271 113.507 56.0001 113.032 56.0001C112.625 56.0001 111.404 56.886 110.319 57.9763C108.555 59.8161 108.352 60.4294 108.352 64.4499V68.9474H106.046H103.807L103.4 64.3817C103.129 60.3613 102.79 59.5436 100.958 57.9081C98.6521 55.8638 96.0066 55.4549 93.0899 56.8178C90.5801 57.9763 89.3592 60.702 89.3592 65.1995V68.9474H86.9851H84.611V65.1995C84.611 60.702 83.39 57.9763 80.8802 56.8178C78.0313 55.5231 75.8607 55.8638 73.6901 57.9763C71.9265 59.8161 71.723 60.4294 71.723 64.4499V68.9474H69.3489C67.9244 68.9474 66.9748 68.6066 66.907 68.0615C66.907 67.6526 66.7713 65.7446 66.6356 63.9729C66.2965 57.7037 64.2615 56.0001 57.2071 56.0001C53.4763 56.0001 52.798 56.2045 51.1701 57.84C49.6778 59.4073 49.4065 60.4976 49.203 64.1773L48.9995 68.6066L46.4897 68.8111L43.9121 69.0155V64.518C43.9121 60.4294 43.7086 59.8161 41.945 57.9763C40.3849 56.409 39.3674 56.0001 37.129 56.0001C34.8905 56.0001 33.8731 56.409 32.3129 57.9763C30.5493 59.8161 30.3458 60.4294 30.3458 64.4499V68.9474H27.9717C26.0046 68.9474 25.5976 68.6748 25.5298 67.3801C25.462 66.5623 25.3941 65.2676 25.3263 64.518C25.2585 63.7684 25.1228 62.2693 25.055 61.2471C24.7158 56.6815 18.611 54.3647 14.7446 57.363C13.2523 58.4533 12.981 59.3391 12.7097 63.6322L12.3705 68.6066L9.86074 68.8111L7.28314 69.0155V64.8587C7.28314 59.0665 5.45169 56.0682 2.06012 56.0001C0.5 56.0001 0.5 56.1364 0.5 64.518Z" fill="#111133" fill-opacity="0.870588" />
                        <defs>
                            <linearGradient id="paint0_linear_255_86" x1="1.22979" y1="38.4296" x2="113.5" y2="38.4296" gradientUnits="userSpaceOnUse">
                                <stop stop-color="#FFA585" />
                                <stop offset="1" stop-color="#FFEDA0" />
                            </linearGradient>
                            <linearGradient id="paint1_linear_255_86" x1="26.9714" y1="34.1162" x2="28.3925" y2="34.1162" gradientUnits="userSpaceOnUse">
                                <stop stop-color="#FFA585" />
                                <stop offset="1" stop-color="#FFEDA0" />
                            </linearGradient>
                            <linearGradient id="paint2_linear_255_86" x1="85.6169" y1="34.1162" x2="87.038" y2="34.1162" gradientUnits="userSpaceOnUse">
                                <stop stop-color="#FFA585" />
                                <stop offset="1" stop-color="#FFEDA0" />
                            </linearGradient>
                            <linearGradient id="paint3_linear_255_86" x1="29.8553" y1="41.7413" x2="34.8293" y2="41.7413" gradientUnits="userSpaceOnUse">
                                <stop stop-color="#FFA585" />
                                <stop offset="1" stop-color="#FFEDA0" />
                            </linearGradient>
                            <linearGradient id="paint4_linear_255_86" x1="80.6242" y1="41.7413" x2="84.177" y2="41.7413" gradientUnits="userSpaceOnUse">
                                <stop stop-color="#FFA585" />
                                <stop offset="1" stop-color="#FFEDA0" />
                            </linearGradient>
                            <linearGradient id="paint5_linear_255_86" x1="89.2064" y1="41.7413" x2="92.7593" y2="41.7413" gradientUnits="userSpaceOnUse">
                                <stop stop-color="#FFA585" />
                                <stop offset="1" stop-color="#FFEDA0" />
                            </linearGradient>
                            <linearGradient id="paint6_linear_255_86" x1="21.974" y1="42.0879" x2="24.8163" y2="42.0879" gradientUnits="userSpaceOnUse">
                                <stop stop-color="#FFA585" />
                                <stop offset="1" stop-color="#FFEDA0" />
                            </linearGradient>
                            <linearGradient id="paint7_linear_255_86" x1="14.1256" y1="45.5538" x2="19.8101" y2="45.5538" gradientUnits="userSpaceOnUse">
                                <stop stop-color="#FFA585" />
                                <stop offset="1" stop-color="#FFEDA0" />
                            </linearGradient>
                            <linearGradient id="paint8_linear_255_86" x1="72.7713" y1="45.5538" x2="78.4559" y2="45.5538" gradientUnits="userSpaceOnUse">
                                <stop stop-color="#FFA585" />
                                <stop offset="1" stop-color="#FFEDA0" />
                            </linearGradient>
                            <linearGradient id="paint9_linear_255_86" x1="94.9422" y1="45.5538" x2="100.627" y2="45.5538" gradientUnits="userSpaceOnUse">
                                <stop stop-color="#FFA585" />
                                <stop offset="1" stop-color="#FFEDA0" />
                            </linearGradient>
                            <linearGradient id="paint10_linear_255_86" x1="36.2967" y1="45.9004" x2="41.9813" y2="45.9004" gradientUnits="userSpaceOnUse">
                                <stop stop-color="#FFA585" />
                                <stop offset="1" stop-color="#FFEDA0" />
                            </linearGradient>
                            <linearGradient id="paint11_linear_255_86" x1="43.4437" y1="48.3266" x2="48.4177" y2="48.3266" gradientUnits="userSpaceOnUse">
                                <stop stop-color="#FFA585" />
                                <stop offset="1" stop-color="#FFEDA0" />
                            </linearGradient>
                            <linearGradient id="paint12_linear_255_86" x1="102.805" y1="48.3266" x2="107.779" y2="48.3266" gradientUnits="userSpaceOnUse">
                                <stop stop-color="#FFA585" />
                                <stop offset="1" stop-color="#FFEDA0" />
                            </linearGradient>
                            <linearGradient id="paint13_linear_255_86" x1="5.55278" y1="48.6732" x2="12.6585" y2="48.6732" gradientUnits="userSpaceOnUse">
                                <stop stop-color="#FFA585" />
                                <stop offset="1" stop-color="#FFEDA0" />
                            </linearGradient>
                            <linearGradient id="paint14_linear_255_86" x1="64.9039" y1="48.6732" x2="70.5885" y2="48.6732" gradientUnits="userSpaceOnUse">
                                <stop stop-color="#FFA585" />
                                <stop offset="1" stop-color="#FFEDA0" />
                            </linearGradient>
                            <linearGradient id="paint15_linear_255_86" x1="50.6418" y1="50.4062" x2="62.7215" y2="50.4062" gradientUnits="userSpaceOnUse">
                                <stop stop-color="#FFA585" />
                                <stop offset="1" stop-color="#FFEDA0" />
                            </linearGradient>
                            <linearGradient id="paint16_linear_255_86" x1="109.236" y1="50.4062" x2="113.5" y2="50.4062" gradientUnits="userSpaceOnUse">
                                <stop stop-color="#FFA585" />
                                <stop offset="1" stop-color="#FFEDA0" />
                            </linearGradient>
                            <linearGradient id="paint17_linear_255_86" x1="0.523095" y1="50.7528" x2="4.07595" y2="50.7528" gradientUnits="userSpaceOnUse">
                                <stop stop-color="#FFA585" />
                                <stop offset="1" stop-color="#FFEDA0" />
                            </linearGradient>
                        </defs>
                    </svg>